version 1
nodes
0 "root" -1
end
skeleton
time 0
0 0 0 0 0 0 0
end
triangles
mount_casv_vltor_picatinny_rail_sections_LOD0
0  0.047404 -0.000053 -0.008112  -0.000000 0.000000 -1.000000  0.998806 0.538369 0
0  -0.047368 -0.000053 -0.008112  -0.000000 0.000000 -1.000000  0.439793 0.538369 0
0  -0.047368 0.003604 -0.008112  -0.000000 0.000000 -1.000000  0.439793 0.582712 0
mount_casv_vltor_picatinny_rail_sections_LOD0
0  0.047404 0.003604 -0.008112  -0.000000 0.000000 -1.000000  0.998806 0.582613 0
0  0.047404 -0.000053 -0.008112  -0.000000 0.000000 -1.000000  0.998806 0.538369 0
0  -0.047368 0.003604 -0.008112  -0.000000 0.000000 -1.000000  0.439793 0.582712 0
mount_casv_vltor_picatinny_rail_sections_LOD0
0  0.047404 0.003604 -0.008112  -0.000000 -0.687056 -0.726604  0.003900 0.994000 0
0  -0.047368 0.003604 -0.008112  -0.000000 -0.687056 -0.726604  0.562913 0.994000 0
0  -0.047368 0.006470 -0.010822  -0.000000 -0.687056 -0.726604  0.562913 0.946185 0
mount_casv_vltor_picatinny_rail_sections_LOD0
0  0.047404 0.006470 -0.010822  -0.000000 -0.687056 -0.726604  0.003900 0.946185 0
0  0.047404 0.003604 -0.008112  -0.000000 -0.687056 -0.726604  0.003900 0.994000 0
0  -0.047368 0.006470 -0.010822  -0.000000 -0.687056 -0.726604  0.562913 0.946185 0
mount_casv_vltor_picatinny_rail_sections_LOD0
0  0.047404 0.006470 -0.010822  -0.000000 0.704763 -0.709443  0.003900 0.946185 0
0  -0.047368 0.006470 -0.010822  -0.000000 0.704763 -0.709443  0.562913 0.946185 0
0  -0.047368 0.009198 -0.008112  -0.000000 0.704763 -0.709443  0.562913 0.899560 0
mount_casv_vltor_picatinny_rail_sections_LOD0
0  0.047404 0.009198 -0.008112  -0.000000 0.704763 -0.709443  0.003900 0.899560 0
0  0.047404 0.006470 -0.010822  -0.000000 0.704763 -0.709443  0.003900 0.946185 0
0  -0.047368 0.009198 -0.008112  -0.000000 0.704763 -0.709443  0.562913 0.899560 0
mount_casv_vltor_picatinny_rail_sections_LOD0
0  0.047404 0.006470 -0.010822  1.000000 0.000000 0.000000  0.934771 0.590945 0
0  0.047404 0.009198 -0.008112  1.000000 0.000000 0.000000  0.950867 0.623781 0
0  0.047404 0.009198 0.008170  1.000000 0.000000 0.000000  0.950867 0.821191 0
mount_casv_vltor_picatinny_rail_sections_LOD0
0  0.047404 0.006470 0.010880  1.000000 -0.000001 0.000000  0.934771 0.854027 0
0  0.047404 0.006470 -0.010822  1.000000 0.000000 0.000000  0.934771 0.590945 0
0  0.047404 0.009198 0.008170  1.000000 0.000000 0.000000  0.950867 0.821191 0
mount_casv_vltor_picatinny_rail_sections_LOD0
0  0.047404 0.003604 -0.008112  1.000000 -0.000000 0.000000  0.917875 0.623781 0
0  0.047404 0.006470 -0.010822  1.000000 0.000000 0.000000  0.934771 0.590945 0
0  0.047404 0.006470 0.010880  1.000000 -0.000001 0.000000  0.934771 0.854027 0
mount_casv_vltor_picatinny_rail_sections_LOD0
0  0.047404 0.003604 0.008170  1.000000 -0.000001 0.000000  0.917875 0.821191 0
0  0.047404 0.003604 -0.008112  1.000000 -0.000000 0.000000  0.917875 0.623781 0
0  0.047404 0.006470 0.010880  1.000000 -0.000001 0.000000  0.934771 0.854027 0
mount_casv_vltor_picatinny_rail_sections_LOD0
0  0.047404 -0.000053 -0.008112  1.000000 0.000000 0.000000  0.896281 0.623781 0
0  0.047404 0.003604 -0.008112  1.000000 -0.000000 0.000000  0.917875 0.623781 0
0  0.047404 0.003604 0.008170  1.000000 -0.000001 0.000000  0.917875 0.821191 0
mount_casv_vltor_picatinny_rail_sections_LOD0
0  0.047404 -0.000053 0.008170  1.000000 0.000000 0.000000  0.896281 0.821191 0
0  0.047404 -0.000053 -0.008112  1.000000 0.000000 0.000000  0.896281 0.623781 0
0  0.047404 0.003604 0.008170  1.000000 -0.000001 0.000000  0.917875 0.821191 0
mount_casv_vltor_picatinny_rail_sections_LOD0
0  0.047404 -0.000053 0.008170  0.000000 0.000000 1.000000  0.998806 0.538369 0
0  0.047404 0.003604 0.008170  0.000000 0.000000 1.000000  0.998806 0.582613 0
0  -0.047368 0.003604 0.008170  0.000000 0.000000 1.000000  0.439793 0.582712 0
mount_casv_vltor_picatinny_rail_sections_LOD0
0  -0.047368 -0.000053 0.008170  0.000000 0.000000 1.000000  0.439793 0.538369 0
0  0.047404 -0.000053 0.008170  0.000000 0.000000 1.000000  0.998806 0.538369 0
0  -0.047368 0.003604 0.008170  0.000000 0.000000 1.000000  0.439793 0.582712 0
mount_casv_vltor_picatinny_rail_sections_LOD0
0  0.047404 0.003604 0.008170  0.000000 -0.687055 0.726605  0.003900 0.994000 0
0  0.047404 0.006470 0.010880  0.000000 -0.687055 0.726605  0.003900 0.946185 0
0  -0.047368 0.006470 0.010880  0.000000 -0.687055 0.726605  0.562913 0.946185 0
mount_casv_vltor_picatinny_rail_sections_LOD0
0  -0.047368 0.003604 0.008170  0.000000 -0.687055 0.726605  0.562913 0.994000 0
0  0.047404 0.003604 0.008170  0.000000 -0.687055 0.726605  0.003900 0.994000 0
0  -0.047368 0.006470 0.010880  0.000000 -0.687055 0.726605  0.562913 0.946185 0
mount_casv_vltor_picatinny_rail_sections_LOD0
0  0.047404 0.006470 0.010880  0.000000 0.704762 0.709444  0.003900 0.946185 0
0  0.047404 0.009198 0.008170  0.000000 0.704762 0.709444  0.003900 0.899560 0
0  -0.047368 0.009198 0.008170  0.000000 0.704762 0.709444  0.562963 0.899560 0
mount_casv_vltor_picatinny_rail_sections_LOD0
0  -0.047368 0.006470 0.010880  0.000000 0.704762 0.709444  0.562913 0.946185 0
0  0.047404 0.006470 0.010880  0.000000 0.704762 0.709444  0.003900 0.946185 0
0  -0.047368 0.009198 0.008170  0.000000 0.704762 0.709444  0.562963 0.899560 0
mount_casv_vltor_picatinny_rail_sections_LOD0
0  0.047404 0.009198 0.008170  -0.000000 1.000000 0.000000  0.003150 0.893410 0
0  0.047404 0.009198 -0.008112  -0.000000 1.000000 0.000000  0.003150 0.696000 0
0  -0.047368 0.009198 -0.008112  -0.000000 1.000000 0.000000  0.562213 0.696000 0
mount_casv_vltor_picatinny_rail_sections_LOD0
0  -0.047368 0.009198 0.008170  -0.000000 1.000000 0.000000  0.562213 0.893311 0
0  0.047404 0.009198 0.008170  -0.000000 1.000000 0.000000  0.003150 0.893410 0
0  -0.047368 0.009198 -0.008112  -0.000000 1.000000 0.000000  0.562213 0.696000 0
mount_casv_vltor_picatinny_rail_sections_LOD0
0  -0.047368 -0.000053 -0.008112  0.000000 -1.000000 0.000000  0.436344 0.690444 0
0  0.047404 -0.000053 -0.008112  0.000000 -1.000000 0.000000  0.003100 0.690444 0
0  0.047404 -0.000053 0.008170  0.000000 -1.000000 0.000000  0.003050 0.537476 0
mount_casv_vltor_picatinny_rail_sections_LOD0
0  -0.047368 -0.000053 0.008170  0.000000 -1.000000 0.000000  0.436344 0.537476 0
0  -0.047368 -0.000053 -0.008112  0.000000 -1.000000 0.000000  0.436344 0.690444 0
0  0.047404 -0.000053 0.008170  0.000000 -1.000000 0.000000  0.003050 0.537476 0
mount_casv_vltor_picatinny_rail_sections_LOD0
0  -0.047368 0.009198 -0.008112  -1.000000 -0.000005 0.000000  0.950867 0.821191 0
0  -0.047368 0.006470 -0.010822  -1.000000 -0.000000 0.000000  0.934771 0.854027 0
0  -0.047368 0.009198 0.008170  -1.000000 -0.000000 0.000000  0.950867 0.623781 0
mount_casv_vltor_picatinny_rail_sections_LOD0
0  -0.047368 0.006470 -0.010822  -1.000000 -0.000000 0.000000  0.934771 0.854027 0
0  -0.047368 0.006470 0.010880  -1.000000 0.000000 0.000000  0.934771 0.590945 0
0  -0.047368 0.009198 0.008170  -1.000000 -0.000000 0.000000  0.950867 0.623781 0
mount_casv_vltor_picatinny_rail_sections_LOD0
0  -0.047368 0.006470 -0.010822  -1.000000 -0.000000 0.000000  0.934771 0.854027 0
0  -0.047368 0.003604 -0.008112  -1.000000 0.000002 0.000000  0.917875 0.821191 0
0  -0.047368 0.006470 0.010880  -1.000000 0.000000 0.000000  0.934771 0.590945 0
mount_casv_vltor_picatinny_rail_sections_LOD0
0  -0.047368 0.003604 -0.008112  -1.000000 0.000002 0.000000  0.917875 0.821191 0
0  -0.047368 0.003604 0.008170  -1.000000 0.000000 0.000000  0.917875 0.623781 0
0  -0.047368 0.006470 0.010880  -1.000000 0.000000 0.000000  0.934771 0.590945 0
mount_casv_vltor_picatinny_rail_sections_LOD0
0  -0.047368 0.003604 -0.008112  -1.000000 0.000002 0.000000  0.917875 0.821191 0
0  -0.047368 -0.000053 -0.008112  -1.000000 0.000000 0.000000  0.896281 0.821191 0
0  -0.047368 0.003604 0.008170  -1.000000 0.000000 0.000000  0.917875 0.623781 0
mount_casv_vltor_picatinny_rail_sections_LOD0
0  -0.047368 -0.000053 -0.008112  -1.000000 0.000000 0.000000  0.896281 0.821191 0
0  -0.047368 -0.000053 0.008170  -1.000000 0.000000 0.000000  0.896281 0.623880 0
0  -0.047368 0.003604 0.008170  -1.000000 0.000000 0.000000  0.917875 0.623781 0
end
